HIERARCHY
ROOT joint_Root
{
	OFFSET 0.0 0.0 0.0
	CHANNELS 6 Xposition Yposition Zposition Zrotation Xrotation Yrotation 
	JOINT Hips
	{
		OFFSET -17.1583 93.1646 452.98
		CHANNELS 6 Xposition Yposition Zposition Zrotation Xrotation Yrotation 
		JOINT Spine
		{
			OFFSET 15.7357 0.0 0.0
			CHANNELS 6 Xposition Yposition Zposition Zrotation Xrotation Yrotation 
			JOINT Chest
			{
				OFFSET 8.98455 -0.406207 0.0
				CHANNELS 6 Xposition Yposition Zposition Zrotation Xrotation Yrotation 
				JOINT Neck
				{
					OFFSET 16.3773 0.0 0.0
					CHANNELS 6 Xposition Yposition Zposition Zrotation Xrotation Yrotation 
					JOINT Head
					{
						OFFSET 6.45672 0.0 0.0
						CHANNELS 6 Xposition Yposition Zposition Zrotation Xrotation Yrotation 
						End Site
						{
							OFFSET 0.0 0.0 0.0
						}
					}
				}
				JOINT Shoulder_L
				{
					OFFSET 12.9942 -0.242716 4.98039
					CHANNELS 6 Xposition Yposition Zposition Zrotation Xrotation Yrotation 
					JOINT UpperArm_L
					{
						OFFSET 5.34809 0.0 0.0
						CHANNELS 6 Xposition Yposition Zposition Zrotation Xrotation Yrotation 
						JOINT LowerArm_L
						{
							OFFSET 24.3286 1.87007e-05 0.0
							CHANNELS 6 Xposition Yposition Zposition Zrotation Xrotation Yrotation 
							JOINT Hand_L
							{
								OFFSET 22.2916 0.0 0.0
								CHANNELS 6 Xposition Yposition Zposition Zrotation Xrotation Yrotation 
								End Site
								{
									OFFSET 0.0 0.0 0.0
								}
							}
						}
					}
				}
				JOINT Shoulder_R
				{
					OFFSET 12.9945 -0.242716 -4.98039
					CHANNELS 6 Xposition Yposition Zposition Zrotation Xrotation Yrotation 
					JOINT UpperArm_R
					{
						OFFSET -5.34813 0.0 0.0
						CHANNELS 6 Xposition Yposition Zposition Zrotation Xrotation Yrotation 
						JOINT LowerArm_R
						{
							OFFSET -24.3289 0.000322201 0.0
							CHANNELS 6 Xposition Yposition Zposition Zrotation Xrotation Yrotation 
							JOINT Hand_R
							{
								OFFSET -22.2915 -0.000108084 0.0
								CHANNELS 6 Xposition Yposition Zposition Zrotation Xrotation Yrotation 
								End Site
								{
									OFFSET 0.0 0.0 0.0
								}
							}
						}
					}
				}
			}
		}
		JOINT UpperLeg_L
		{
			OFFSET -2.19248 -6.46944 0.0
			CHANNELS 6 Xposition Yposition Zposition Zrotation Xrotation Yrotation 
			JOINT LowerLeg_L
			{
				OFFSET 39.0811 0.0 -1.23785e-05
				CHANNELS 6 Xposition Yposition Zposition Zrotation Xrotation Yrotation 
				JOINT Foot_L
				{
					OFFSET 40.9854 0.0 -1.26872e-05
					CHANNELS 6 Xposition Yposition Zposition Zrotation Xrotation Yrotation 
					JOINT Toes_L
					{
						OFFSET 11.7543 0.0 0.0
						CHANNELS 6 Xposition Yposition Zposition Zrotation Xrotation Yrotation 
						End Site
						{
							OFFSET 0.0 0.0 0.0
						}
					}
				}
			}
		}
		JOINT UpperLeg_R
		{
			OFFSET -2.19251 6.46944 0.0
			CHANNELS 6 Xposition Yposition Zposition Zrotation Xrotation Yrotation 
			JOINT LowerLeg_R
			{
				OFFSET -39.0811 -0.00228153 -0.0401928
				CHANNELS 6 Xposition Yposition Zposition Zrotation Xrotation Yrotation 
				JOINT Foot_R
				{
					OFFSET -40.9854 0.0 0.0
					CHANNELS 6 Xposition Yposition Zposition Zrotation Xrotation Yrotation 
					JOINT Toes_R
					{
						OFFSET -11.7543 0.0 0.0
						CHANNELS 6 Xposition Yposition Zposition Zrotation Xrotation Yrotation 
						End Site
						{
							OFFSET 0.0 0.0 0.0
						}
					}
				}
			}
		}
	}
}
MOTION
Frames:	4
Frame Time:	0.0333333
0.000000 0.000000 0.000000 0.000000 0.000000 -0.000000 -2.697760 92.981000 -0.744363 87.705400 3.113020 4.645640 15.735700 0.000005 -0.000001 87.290400 85.187200 -86.115800 8.984550 -0.406207 -0.000000 1.855250 -0.515337 2.355360 16.377300 -0.000001 -0.000001 2.932520 1.648310 -0.741063 6.456720 -0.000001 -0.000000 -13.701000 0.770626 1.202980 12.994200 -0.242716 4.980390 -93.314400 10.200400 -71.891200 5.348090 -0.000007 -0.000001 -68.805700 32.896600 -3.887950 24.328600 0.000019 0.000005 8.635140 19.978500 -23.964100 22.291600 -0.000001 0.000005 -8.581040 5.058580 6.043890 12.994500 -0.242716 -4.980390 87.801500 6.579710 -71.477300 -5.348130 -0.000001 -0.000004 -66.799400 39.236500 -7.687540 -24.328900 0.000322 -0.000009 0.702389 1.960920 -19.736200 -22.291500 -0.000108 -0.000004 -6.736490 5.143810 4.084380 -2.192480 -6.469440 -0.000000 -171.168000 -9.760490 0.709577 39.081100 -0.000007 -0.000012 -0.001972 0.006273 17.448600 40.985400 -0.000006 -0.000013 -1.237270 16.650600 -68.117400 11.754300 -0.000000 0.000003 -0.001584 0.191006 -8.827980 -2.192510 6.469440 -0.000001 177.599000 9.437610 -176.249000 -39.081100 -0.002282 -0.040193 0.017232 -0.055884 13.967300 -40.985400 0.000008 0.000006 -4.866750 8.529120 -68.056700 -11.754300 -0.000006 -0.000006 -0.010298 0.273516 -5.460560
0.000000 0.000000 0.000000 0.000000 0.000000 -0.000000 -2.689850 92.960800 -0.688755 87.805300 3.336500 4.780920 15.735700 0.000005 -0.000001 86.082600 84.675500 -84.842200 8.984550 -0.406207 -0.000000 2.867990 -0.779808 2.497880 16.377300 -0.000001 -0.000001 1.411140 1.749490 -0.615151 6.456720 -0.000001 -0.000000 -15.477800 1.336780 0.612592 12.994200 -0.242716 4.980390 -93.583900 10.964300 -71.773200 5.348090 -0.000007 -0.000001 -62.947400 38.471100 -7.368590 24.328600 0.000019 0.000005 9.784600 17.927200 -29.259900 22.291600 -0.000001 0.000005 -18.641400 5.036130 6.549460 12.994500 -0.242716 -4.980390 87.610100 6.989030 -71.068000 -5.348130 -0.000001 -0.000004 -62.313000 40.327100 -10.760900 -24.328900 0.000322 -0.000009 1.231500 2.844790 -23.440200 -22.291500 -0.000108 -0.000004 -13.083800 5.181900 3.173710 -2.192480 -6.469440 -0.000000 -171.266000 -9.497350 0.819203 39.081100 -0.000007 -0.000012 0.000618 -0.001962 17.504400 40.985400 -0.000006 -0.000013 -1.228350 16.644300 -68.199900 11.754300 -0.000000 0.000003 -0.001689 0.192378 -8.772200 -2.192510 6.469440 -0.000001 177.484000 9.361350 -176.154000 -39.081100 -0.002282 -0.040193 0.018598 -0.060312 14.204200 -40.985400 0.000008 0.000006 -4.890060 8.333430 -68.281600 -11.754300 -0.000006 -0.000006 -0.010318 0.273665 -5.454460
0.000000 0.000000 0.000000 0.000000 0.000000 -0.000000 -2.698460 92.936000 -0.739017 87.875800 3.583050 4.965180 15.735700 0.000005 -0.000001 85.516700 84.170800 -84.185100 8.984550 -0.406207 -0.000000 3.869620 -0.955296 2.692700 16.377300 -0.000001 -0.000001 -0.363957 1.889190 -0.584007 6.456720 -0.000001 -0.000000 -17.847400 1.920210 0.002747 12.994200 -0.242716 4.980390 -93.522900 10.653100 -71.581100 5.348090 -0.000007 -0.000001 -55.236700 40.137200 -10.661900 24.328600 0.000019 0.000005 13.481600 15.223500 -42.397000 22.291600 -0.000001 0.000005 -32.012200 5.046400 6.293030 12.994500 -0.242716 -4.980390 87.641600 6.651530 -70.426000 -5.348130 -0.000001 -0.000004 -57.057900 38.530600 -12.028000 -24.328900 0.000322 -0.000009 1.083020 1.527920 -35.390900 -22.291500 -0.000108 -0.000004 -20.334300 5.131730 4.389270 -2.192480 -6.469440 -0.000000 -171.303000 -9.354080 0.810386 39.081100 -0.000007 -0.000012 0.002074 -0.006502 17.698000 40.985400 -0.000006 -0.000013 -1.190870 16.850900 -68.207600 11.754300 -0.000000 0.000003 -0.001896 0.195033 -8.664230 -2.192510 6.469440 -0.000001 177.379000 9.313850 -176.170000 -39.081100 -0.002282 -0.040193 0.019707 -0.062789 14.618200 -40.985400 0.000008 0.000006 -5.069720 8.156640 -68.530600 -11.754300 -0.000006 -0.000006 -0.010234 0.273045 -5.479820
0.000000 0.000000 0.000000 0.000000 0.000000 -0.000000 -2.699920 92.987000 -0.869539 87.975100 3.958140 4.296000 15.735700 0.000005 -0.000001 84.702800 84.208800 -83.251800 8.984550 -0.406207 -0.000000 3.783250 -1.118260 2.935720 16.377300 -0.000001 -0.000001 -1.795960 2.017070 -0.810017 6.456720 -0.000001 -0.000000 -20.066800 2.265200 -0.807020 12.994200 -0.242716 4.980390 -93.198300 9.374600 -71.065000 5.348090 -0.000007 -0.000001 -46.545600 36.443800 -13.496900 24.328600 0.000019 0.000005 16.034200 9.757320 -59.480400 22.291600 -0.000001 0.000005 -40.131700 5.122980 4.578640 12.994500 -0.242716 -4.980390 87.799600 5.913820 -69.548100 -5.348130 -0.000001 -0.000004 -49.528600 34.983900 -11.978700 -24.328900 0.000322 -0.000009 1.218240 0.848198 -55.156900 -22.291500 -0.000108 -0.000004 -24.402000 5.069150 5.812860 -2.192480 -6.469440 -0.000000 -171.482000 -9.583670 0.174148 39.081100 -0.000007 -0.000012 0.005390 -0.017278 17.326900 40.985400 -0.000006 -0.000013 -1.188500 17.405700 -68.059900 11.754300 -0.000000 0.000003 -0.001806 0.193895 -8.710530 -2.192510 6.469440 -0.000001 177.249000 9.808380 -176.865000 -39.081100 -0.002282 -0.040193 0.014616 -0.043663 14.491500 -40.985400 0.000008 0.000006 -5.913010 8.353840 -68.116700 -11.754300 -0.000006 -0.000006 -0.010151 0.272428 -5.505070
